<?xml version="1.0" encoding="UTF-8" standalone="no"?><!DOCTYPE svg PUBLIC "-//W3C//DTD SVG 1.1//EN" "http://www.w3.org/Graphics/SVG/1.1/DTD/svg11.dtd"><svg width="100%" height="100%" viewBox="0 0 111 28" version="1.1" xmlns="http://www.w3.org/2000/svg" xmlns:xlink="http://www.w3.org/1999/xlink" xml:space="preserve" xmlns:serif="http://www.serif.com/" style="fill-rule:evenodd;clip-rule:evenodd;stroke-linejoin:round;stroke-miterlimit:1.41421;"><rect id="_28_-good_w" serif:id="28_@good_w" x="0" y="0" width="111" height="28" style="fill:none;"/><clipPath id="_clip1"><rect x="0" y="0" width="111" height="28"/></clipPath><g clip-path="url(#_clip1)"><g id="_28_-good_w1" serif:id="28_@good_w"><g><path d="M44.395,18.098l-5.832,0c1.044,-0.953 1.355,-2.86 1.336,-4.959l-0.001,-0.225l0.001,0l0,-2.563l4.496,0l0,7.747Zm4.316,0l-1.708,0l0,-10.258l-9.713,0l0,5.074l0.002,0c0,0.001 -0.001,0.003 -0.001,0.005l0.004,0.698c0.008,1.172 -0.003,4.461 -2.462,4.475c-0.032,0.001 -0.485,0.006 -0.485,0.006l0,5.371l2.609,0l0,-2.86l9.145,0l0,2.86l2.609,0l0,-2.858l0,-2.513Z" style="fill:#fff;fill-rule:nonzero;"/><path d="M56.306,7.512c3.705,0 6.712,3.008 6.712,6.712c0,3.705 -3.007,6.713 -6.712,6.713c-3.704,0 -6.712,-3.008 -6.712,-6.713c0,-3.704 3.008,-6.712 6.712,-6.712Zm0,2.608c2.266,0 4.105,1.839 4.105,4.104c0,2.266 -1.839,4.105 -4.105,4.105c-2.265,0 -4.104,-1.839 -4.104,-4.105c0,-2.265 1.839,-4.104 4.104,-4.104Z" style="fill:#fff;"/><path d="M103.246,7.512c3.705,0 6.712,3.008 6.712,6.712c0,3.705 -3.007,6.713 -6.712,6.713c-3.704,0 -6.712,-3.008 -6.712,-6.713c0,-3.704 3.008,-6.712 6.712,-6.712Zm0,2.608c2.266,0 4.105,1.839 4.105,4.104c0,2.266 -1.839,4.105 -4.105,4.105c-2.265,0 -4.104,-1.839 -4.104,-4.105c0,-2.265 1.839,-4.104 4.104,-4.104Z" style="fill:#fff;"/><path d="M72.015,18.358c-1.632,0 -3.044,-0.948 -3.716,-2.323c0,0 -0.156,-0.31 -0.237,-0.601c-0.117,-0.383 -0.181,-0.789 -0.181,-1.21c0,-2.281 1.853,-4.133 4.134,-4.133c2.282,0 4.134,1.852 4.134,4.133c0,2.282 -1.852,4.134 -4.134,4.134m-4.423,-8.431c0.001,-1.087 0.632,-2.715 1.701,-3.706c1.284,-1.191 2.656,-1.469 4.545,-1.882c1.041,-0.227 2.317,-0.569 3.393,-1.106l-0.986,-2.412c-0.783,0.319 -1.704,0.521 -2.68,0.734c-2.114,0.462 -4.511,0.986 -6.231,2.947c-1.416,1.614 -2.147,3.991 -2.283,6.692c-0.113,2.233 0.147,4.424 0.903,5.913c1.079,2.264 3.388,3.83 6.061,3.83c3.705,0 6.712,-3.008 6.712,-6.713c0,-3.704 -2.773,-6.712 -6.477,-6.712c-2.519,0 -4.036,1.366 -4.658,2.415Z" style="fill:#fff;fill-rule:nonzero;"/><path d="M81.075,25.109l2.609,-0.004l0,-5.893c0.935,1.059 2.582,1.725 4.131,1.725c3.704,0 6.712,-3.008 6.712,-6.713c0,-3.704 -3.008,-6.712 -6.712,-6.712c-1.549,0 -3.109,0.584 -4.131,1.615l0,-1.287l-2.609,0l0,17.269Zm6.655,-14.914c-2.285,0 -4.082,1.634 -4.082,4.029c0,2.395 1.797,4.044 4.082,4.044c2.284,0 4.02,-1.759 4.02,-4.044c0,-2.284 -1.736,-4.029 -4.02,-4.029Z" style="fill:#fff;"/></g><path d="M18.211,14c0,2.322 -1.889,4.211 -4.211,4.211c-2.322,0 -4.211,-1.889 -4.211,-4.211c0,-2.322 1.889,-4.211 4.211,-4.211c2.322,0 4.211,1.889 4.211,4.211m-4.211,-14c-7.72,0 -14,6.28 -14,14c0,7.72 6.28,14 14,14c2.828,0 5.555,-0.842 7.886,-2.435l0.04,-0.028l-1.886,-2.192l-0.032,0.02c-1.794,1.155 -3.872,1.765 -6.008,1.765c-6.137,0 -11.13,-4.993 -11.13,-11.13c0,-6.137 4.993,-11.13 11.13,-11.13c6.137,0 11.13,4.993 11.13,11.13c0,0.795 -0.089,1.6 -0.262,2.392c-0.352,1.445 -1.364,1.887 -2.123,1.829c-0.764,-0.062 -1.658,-0.606 -1.664,-1.938l0,-1.086l0,-1.197c0,-3.905 -3.176,-7.081 -7.081,-7.081c-3.905,0 -7.081,3.176 -7.081,7.081c0,3.905 3.176,7.081 7.081,7.081c1.897,0 3.676,-0.741 5.017,-2.09c0.78,1.214 2.051,1.975 3.498,2.091c0.124,0.01 0.251,0.015 0.376,0.015c1.019,0 2.028,-0.341 2.842,-0.958c0.839,-0.638 1.466,-1.559 1.812,-2.666c0.055,-0.179 0.157,-0.588 0.157,-0.591l0.003,-0.015c0.204,-0.888 0.295,-1.773 0.295,-2.867c0,-7.72 -6.28,-14 -14,-14" style="fill:#ff9e00;fill-rule:nonzero;"/></g></g></svg>