<svg xmlns="http://www.w3.org/2000/svg" xmlns:xlink="http://www.w3.org/1999/xlink" width="110" height="28" viewBox="0 0 110 28">
  <defs>
    <rect id="a" width="111" height="28"/>
  </defs>
  <g fill="none" fill-rule="evenodd">
    <rect width="111" height="28"/>
    <mask id="b" fill="white">
      <use xlink:href="#a"/>
    </mask>
    <g mask="url(#b)">
      <g fill="#005FF9" transform="translate(34)">
        <path fill-rule="nonzero" d="M10.395,18.098 L4.563,18.098 C5.607,17.145 5.918,15.238 5.899,13.139 L5.898,12.914 L5.899,12.914 L5.899,10.351 L10.395,10.351 L10.395,18.098 Z M14.711,18.098 L13.003,18.098 L13.003,7.84 L3.29,7.84 L3.29,12.914 L3.292,12.914 C3.292,12.915 3.291,12.917 3.291,12.919 L3.295,13.617 C3.303,14.789 3.292,18.078 0.833,18.092 C0.801,18.093 0.348,18.098 0.348,18.098 L0.348,23.469 L2.957,23.469 L2.957,20.609 L12.102,20.609 L12.102,23.469 L14.711,23.469 L14.711,20.611 L14.711,18.098 Z"/>
        <path d="M22.306 7.512C26.011 7.512 29.018 10.52 29.018 14.224 29.018 17.929 26.011 20.937 22.306 20.937 18.602 20.937 15.594 17.929 15.594 14.224 15.594 10.52 18.602 7.512 22.306 7.512zM22.306 10.12C24.572 10.12 26.411 11.959 26.411 14.224 26.411 16.49 24.572 18.329 22.306 18.329 20.041 18.329 18.202 16.49 18.202 14.224 18.202 11.959 20.041 10.12 22.306 10.12zM69.246 7.512C72.951 7.512 75.958 10.52 75.958 14.224 75.958 17.929 72.951 20.937 69.246 20.937 65.542 20.937 62.534 17.929 62.534 14.224 62.534 10.52 65.542 7.512 69.246 7.512zM69.246 10.12C71.512 10.12 73.351 11.959 73.351 14.224 73.351 16.49 71.512 18.329 69.246 18.329 66.981 18.329 65.142 16.49 65.142 14.224 65.142 11.959 66.981 10.12 69.246 10.12z"/>
        <path fill-rule="nonzero" d="M38.015,18.358 C36.383,18.358 34.971,17.41 34.299,16.035 C34.299,16.035 34.143,15.725 34.062,15.434 C33.945,15.051 33.881,14.645 33.881,14.224 C33.881,11.943 35.734,10.091 38.015,10.091 C40.297,10.091 42.149,11.943 42.149,14.224 C42.149,16.506 40.297,18.358 38.015,18.358 Z M33.592,9.927 C33.593,8.84 34.224,7.212 35.293,6.221 C36.577,5.03 37.949,4.752 39.838,4.339 C40.879,4.112 42.155,3.77 43.231,3.233 L42.245,0.821 C41.462,1.14 40.541,1.342 39.565,1.555 C37.451,2.017 35.054,2.541 33.334,4.502 C31.918,6.116 31.187,8.493 31.051,11.194 C30.938,13.427 31.198,15.618 31.954,17.107 C33.033,19.371 35.342,20.937 38.015,20.937 C41.72,20.937 44.727,17.929 44.727,14.224 C44.727,10.52 41.954,7.512 38.25,7.512 C35.731,7.512 34.214,8.878 33.592,9.927 Z"/>
        <path d="M47.075,25.109 L49.684,25.105 L49.684,19.212 C50.619,20.271 52.266,20.937 53.815,20.937 C57.519,20.937 60.527,17.929 60.527,14.224 C60.527,10.52 57.519,7.512 53.815,7.512 C52.266,7.512 50.706,8.096 49.684,9.127 L49.684,7.84 L47.075,7.84 L47.075,25.109 Z M53.73,10.195 C51.445,10.195 49.648,11.829 49.648,14.224 C49.648,16.619 51.445,18.268 53.73,18.268 C56.014,18.268 57.75,16.509 57.75,14.224 C57.75,11.94 56.014,10.195 53.73,10.195 Z"/>
      </g>
      <path fill="#FF9E00" fill-rule="nonzero" d="M18.211,14 C18.211,16.322 16.322,18.211 14,18.211 C11.678,18.211 9.789,16.322 9.789,14 C9.789,11.678 11.678,9.789 14,9.789 C16.322,9.789 18.211,11.678 18.211,14 M14,-1.77635684e-15 C6.28,-1.77635684e-15 -1.77635684e-15,6.28 -1.77635684e-15,14 C-1.77635684e-15,21.72 6.28,28 14,28 C16.828,28 19.555,27.158 21.886,25.565 L21.926,25.537 L20.04,23.345 L20.008,23.365 C18.214,24.52 16.136,25.13 14,25.13 C7.863,25.13 2.87,20.137 2.87,14 C2.87,7.863 7.863,2.87 14,2.87 C20.137,2.87 25.13,7.863 25.13,14 C25.13,14.795 25.041,15.6 24.868,16.392 C24.516,17.837 23.504,18.279 22.745,18.221 C21.981,18.159 21.087,17.615 21.081,16.283 L21.081,15.197 L21.081,14 C21.081,10.095 17.905,6.919 14,6.919 C10.095,6.919 6.919,10.095 6.919,14 C6.919,17.905 10.095,21.081 14,21.081 C15.897,21.081 17.676,20.34 19.017,18.991 C19.797,20.205 21.068,20.966 22.515,21.082 C22.639,21.092 22.766,21.097 22.891,21.097 C23.91,21.097 24.919,20.756 25.733,20.139 C26.572,19.501 27.199,18.58 27.545,17.473 C27.6,17.294 27.702,16.885 27.702,16.882 L27.705,16.867 C27.909,15.979 28,15.094 28,14 C28,6.28 21.72,3.55271368e-15 14,3.55271368e-15"/>
    </g>
  </g>
</svg>
