<svg xmlns="http://www.w3.org/2000/svg" xmlns:xlink="http://www.w3.org/1999/xlink" width="126" height="32" viewBox="0 0 126 32">
  <defs>
    <rect id="a" width="126" height="32"/>
  </defs>
  <g fill="none" fill-rule="evenodd">
    <rect width="126" height="32"/>
    <mask id="b" fill="white">
      <use xlink:href="#a"/>
    </mask>
    <g mask="url(#b)">
      <g fill="#005FF9" transform="translate(39)">
        <path fill-rule="nonzero" d="M11.737,20.683 L5.072,20.683 C6.266,19.594 6.62,17.415 6.599,15.016 L6.597,14.758 L6.599,14.758 L6.599,11.83 L11.737,11.83 L11.737,20.683 Z M16.67,20.683 L14.718,20.683 L14.718,8.96 L3.617,8.96 L3.617,14.758 L3.619,14.758 C3.619,14.76 3.619,14.762 3.619,14.764 L3.623,15.563 C3.631,16.902 3.619,20.661 0.809,20.677 C0.772,20.677 0.255,20.683 0.255,20.683 L0.255,26.822 L3.236,26.822 L3.236,23.553 L13.688,23.553 L13.688,26.822 L16.67,26.822 L16.67,23.555 L16.67,20.683 Z"/>
        <path d="M25.35 8.585C29.584 8.585 33.021 12.023 33.021 16.256 33.021 20.49 29.584 23.927 25.35 23.927 21.116 23.927 17.679 20.49 17.679 16.256 17.679 12.023 21.116 8.585 25.35 8.585zM25.35 11.565C27.939 11.565 30.041 13.667 30.041 16.256 30.041 18.845 27.939 20.947 25.35 20.947 22.761 20.947 20.659 18.845 20.659 16.256 20.659 13.667 22.761 11.565 25.35 11.565zM78.996 8.585C83.229 8.585 86.667 12.023 86.667 16.256 86.667 20.49 83.229 23.927 78.996 23.927 74.762 23.927 71.325 20.49 71.325 16.256 71.325 12.023 74.762 8.585 78.996 8.585zM78.996 11.565C81.585 11.565 83.687 13.667 83.687 16.256 83.687 18.845 81.585 20.947 78.996 20.947 76.407 20.947 74.305 18.845 74.305 16.256 74.305 13.667 76.407 11.565 78.996 11.565z"/>
        <path fill-rule="nonzero" d="M43.303,20.981 C41.437,20.981 39.823,19.897 39.056,18.325 C39.056,18.325 38.877,17.972 38.785,17.638 C38.651,17.201 38.579,16.737 38.579,16.256 C38.579,13.649 40.696,11.532 43.303,11.532 C45.91,11.532 48.027,13.649 48.027,16.256 C48.027,18.864 45.91,20.981 43.303,20.981 Z M38.248,11.345 C38.249,10.103 38.971,8.243 40.192,7.109 C41.66,5.748 43.227,5.431 45.386,4.959 C46.576,4.699 48.034,4.308 49.264,3.695 L48.137,0.938 C47.242,1.303 46.19,1.534 45.075,1.777 C42.658,2.306 39.919,2.905 37.954,5.145 C36.335,6.99 35.499,9.706 35.344,12.793 C35.215,15.345 35.512,17.849 36.376,19.551 C37.609,22.138 40.248,23.927 43.303,23.927 C47.537,23.927 50.974,20.49 50.974,16.256 C50.974,12.023 47.805,8.585 43.571,8.585 C40.692,8.585 38.958,10.146 38.248,11.345 Z"/>
        <path d="M53.658,28.696 L56.639,28.691 L56.639,21.957 C57.707,23.167 59.589,23.927 61.36,23.927 C65.593,23.927 69.031,20.49 69.031,16.256 C69.031,12.023 65.593,8.585 61.36,8.585 C59.589,8.585 57.806,9.252 56.639,10.431 L56.639,8.96 L53.658,8.96 L53.658,28.696 Z M61.262,11.651 C58.652,11.651 56.598,13.519 56.598,16.256 C56.598,18.994 58.652,20.878 61.262,20.878 C63.873,20.878 65.857,18.867 65.857,16.256 C65.857,13.646 63.873,11.651 61.262,11.651 Z"/>
      </g>
      <path fill="#FF9E00" fill-rule="nonzero" d="M20.813,16 C20.813,18.654 18.654,20.813 16,20.813 C13.346,20.813 11.187,18.654 11.187,16 C11.187,13.346 13.346,11.187 16,11.187 C18.654,11.187 20.813,13.346 20.813,16 M16,0 C7.178,0 0,7.178 0,16 C0,24.822 7.178,32 16,32 C19.232,32 22.349,31.038 25.013,29.217 L25.059,29.185 L22.903,26.679 L22.867,26.703 C20.816,28.022 18.441,28.72 16,28.72 C8.986,28.72 3.28,23.014 3.28,16 C3.28,8.986 8.986,3.28 16,3.28 C23.014,3.28 28.72,8.986 28.72,16 C28.72,16.909 28.619,17.829 28.42,18.734 C28.018,20.385 26.862,20.891 25.994,20.824 C25.121,20.753 24.1,20.131 24.093,18.609 L24.093,17.368 L24.093,16 C24.093,11.537 20.463,7.907 16,7.907 C11.537,7.907 7.907,11.537 7.907,16 C7.907,20.463 11.537,24.093 16,24.093 C18.168,24.093 20.201,23.245 21.734,21.704 C22.625,23.091 24.078,23.961 25.731,24.093 C25.873,24.105 26.018,24.111 26.162,24.111 C27.325,24.111 28.479,23.722 29.409,23.015 C30.368,22.287 31.084,21.234 31.48,19.969 C31.543,19.765 31.659,19.297 31.66,19.294 L31.663,19.277 C31.896,18.262 32,17.25 32,16 C32,7.178 24.822,-3.55271368e-15 16,-3.55271368e-15"/>
    </g>
  </g>
</svg>
