<?xml version="1.0" encoding="UTF-8" standalone="no"?><!DOCTYPE svg PUBLIC "-//W3C//DTD SVG 1.1//EN" "http://www.w3.org/Graphics/SVG/1.1/DTD/svg11.dtd"><svg width="100%" height="100%" viewBox="0 0 126 32" version="1.1" xmlns="http://www.w3.org/2000/svg" xmlns:xlink="http://www.w3.org/1999/xlink" xml:space="preserve" xmlns:serif="http://www.serif.com/" style="fill-rule:evenodd;clip-rule:evenodd;stroke-linejoin:round;stroke-miterlimit:1.41421;"><rect id="_32_-good_w" serif:id="32_@good_w" x="0" y="0" width="126" height="32" style="fill:none;"/><clipPath id="_clip1"><rect x="0" y="0" width="126" height="32"/></clipPath><g clip-path="url(#_clip1)"><g id="_32_-good_w1" serif:id="32_@good_w"><g><path d="M50.737,20.683l-6.665,0c1.194,-1.089 1.548,-3.268 1.527,-5.667l-0.002,-0.258l0.002,0l0,-2.928l5.138,0l0,8.853Zm4.933,0l-1.952,0l0,-11.723l-11.101,0l0,5.798l0.002,0c0,0.002 0,0.004 0,0.006l0.004,0.799c0.008,1.339 -0.004,5.098 -2.814,5.114c-0.037,0 -0.554,0.006 -0.554,0.006l0,6.139l2.981,0l0,-3.269l10.452,0l0,3.269l2.982,0l0,-3.267l0,-2.872Z" style="fill:#fff;fill-rule:nonzero;"/><path d="M64.35,8.585c4.234,0 7.671,3.438 7.671,7.671c0,4.234 -3.437,7.671 -7.671,7.671c-4.234,0 -7.671,-3.437 -7.671,-7.671c0,-4.233 3.437,-7.671 7.671,-7.671Zm0,2.98c2.589,0 4.691,2.102 4.691,4.691c0,2.589 -2.102,4.691 -4.691,4.691c-2.589,0 -4.691,-2.102 -4.691,-4.691c0,-2.589 2.102,-4.691 4.691,-4.691Z" style="fill:#fff;"/><path d="M117.996,8.585c4.233,0 7.671,3.438 7.671,7.671c0,4.234 -3.438,7.671 -7.671,7.671c-4.234,0 -7.671,-3.437 -7.671,-7.671c0,-4.233 3.437,-7.671 7.671,-7.671Zm0,2.98c2.589,0 4.691,2.102 4.691,4.691c0,2.589 -2.102,4.691 -4.691,4.691c-2.589,0 -4.691,-2.102 -4.691,-4.691c0,-2.589 2.102,-4.691 4.691,-4.691Z" style="fill:#fff;"/><path d="M82.303,20.981c-1.866,0 -3.48,-1.084 -4.247,-2.656c0,0 -0.179,-0.353 -0.271,-0.687c-0.134,-0.437 -0.206,-0.901 -0.206,-1.382c0,-2.607 2.117,-4.724 4.724,-4.724c2.607,0 4.724,2.117 4.724,4.724c0,2.608 -2.117,4.725 -4.724,4.725m-5.055,-9.636c0.001,-1.242 0.723,-3.102 1.944,-4.236c1.468,-1.361 3.035,-1.678 5.194,-2.15c1.19,-0.26 2.648,-0.651 3.878,-1.264l-1.127,-2.757c-0.895,0.365 -1.947,0.596 -3.062,0.839c-2.417,0.529 -5.156,1.128 -7.121,3.368c-1.619,1.845 -2.455,4.561 -2.61,7.648c-0.129,2.552 0.168,5.056 1.032,6.758c1.233,2.587 3.872,4.376 6.927,4.376c4.234,0 7.671,-3.437 7.671,-7.671c0,-4.233 -3.169,-7.671 -7.403,-7.671c-2.879,0 -4.613,1.561 -5.323,2.76Z" style="fill:#fff;fill-rule:nonzero;"/><path d="M92.658,28.696l2.981,-0.005l0,-6.734c1.068,1.21 2.95,1.97 4.721,1.97c4.233,0 7.671,-3.437 7.671,-7.671c0,-4.233 -3.438,-7.671 -7.671,-7.671c-1.771,0 -3.554,0.667 -4.721,1.846l0,-1.471l-2.981,0l0,19.736Zm7.604,-17.045c-2.61,0 -4.664,1.868 -4.664,4.605c0,2.738 2.054,4.622 4.664,4.622c2.611,0 4.595,-2.011 4.595,-4.622c0,-2.61 -1.984,-4.605 -4.595,-4.605Z" style="fill:#fff;"/></g><path d="M20.813,16c0,2.654 -2.159,4.813 -4.813,4.813c-2.654,0 -4.813,-2.159 -4.813,-4.813c0,-2.654 2.159,-4.813 4.813,-4.813c2.654,0 4.813,2.159 4.813,4.813m-4.813,-16c-8.822,0 -16,7.178 -16,16c0,8.822 7.178,16 16,16c3.232,0 6.349,-0.962 9.013,-2.783l0.046,-0.032l-2.156,-2.506l-0.036,0.024c-2.051,1.319 -4.426,2.017 -6.867,2.017c-7.014,0 -12.72,-5.706 -12.72,-12.72c0,-7.014 5.706,-12.72 12.72,-12.72c7.014,0 12.72,5.706 12.72,12.72c0,0.909 -0.101,1.829 -0.3,2.734c-0.402,1.651 -1.558,2.157 -2.426,2.09c-0.873,-0.071 -1.894,-0.693 -1.901,-2.215l0,-1.241l0,-1.368c0,-4.463 -3.63,-8.093 -8.093,-8.093c-4.463,0 -8.093,3.63 -8.093,8.093c0,4.463 3.63,8.093 8.093,8.093c2.168,0 4.201,-0.848 5.734,-2.389c0.891,1.387 2.344,2.257 3.997,2.389c0.142,0.012 0.287,0.018 0.431,0.018c1.163,0 2.317,-0.389 3.247,-1.096c0.959,-0.728 1.675,-1.781 2.071,-3.046c0.063,-0.204 0.179,-0.672 0.18,-0.675l0.003,-0.017c0.233,-1.015 0.337,-2.027 0.337,-3.277c0,-8.822 -7.178,-16 -16,-16" style="fill:#ff9e00;fill-rule:nonzero;"/></g></g></svg>