<?xml version="1.0" encoding="UTF-8" standalone="no"?><!DOCTYPE svg PUBLIC "-//W3C//DTD SVG 1.1//EN" "http://www.w3.org/Graphics/SVG/1.1/DTD/svg11.dtd"><svg width="100%" height="100%" viewBox="0 0 1901 320" version="1.1" xmlns="http://www.w3.org/2000/svg" xmlns:xlink="http://www.w3.org/1999/xlink" xml:space="preserve" xmlns:serif="http://www.serif.com/" style="fill-rule:evenodd;clip-rule:evenodd;stroke-linejoin:round;stroke-miterlimit:1.41421;"><rect id="_-good_w_big" serif:id="@good_w_big" x="0" y="0" width="1901" height="320" style="fill:none;"/><clipPath id="_clip1"><rect x="0" y="0" width="1901" height="320"/></clipPath><g clip-path="url(#_clip1)"><g id="_-good_w_big1" serif:id="@good_w_big"><g><path d="M1150.75,206.832l-66.646,0c11.933,-10.89 15.48,-32.682 15.263,-56.676l-0.013,-2.573l0.013,0l0,-29.286l51.383,0l0,88.535Zm49.327,0l-19.514,0l0,-117.231l-111.01,0l0,57.982l0.018,0c0,0.019 -0.003,0.039 -0.003,0.058l0.045,7.985c0.082,13.395 -0.039,50.983 -28.143,51.144c-0.369,0.002 -5.541,0.062 -5.541,0.062l0,61.389l29.813,0l0,-32.693l104.521,0l0,32.693l29.814,0l0,-32.666l0,-28.723Z" style="fill:#fff;fill-rule:nonzero;"/><path d="M1286.88,85.854c42.338,0 76.711,34.373 76.711,76.71c0,42.338 -34.373,76.711 -76.711,76.711c-42.337,0 -76.71,-34.373 -76.71,-76.711c0,-42.337 34.373,-76.71 76.71,-76.71Zm0,29.801c25.891,0 46.91,21.019 46.91,46.909c0,25.891 -21.019,46.91 -46.91,46.91c-25.89,0 -46.909,-21.019 -46.909,-46.91c0,-25.89 21.019,-46.909 46.909,-46.909Z" style="fill:#fff;"/><path d="M1466.41,209.807c-18.656,0 -34.795,-10.839 -42.471,-26.554c0,0 -1.785,-3.536 -2.709,-6.868c-1.338,-4.373 -2.062,-9.012 -2.062,-13.82c0,-26.075 21.168,-47.243 47.242,-47.243c26.075,0 47.244,21.168 47.244,47.243c0,26.074 -21.169,47.242 -47.244,47.242m-50.546,-96.355c0.008,-12.42 7.224,-31.025 19.441,-42.358c14.671,-13.61 30.347,-16.781 51.941,-21.502c11.895,-2.6 26.478,-6.508 38.771,-12.643l-11.267,-27.57c-8.945,3.654 -19.474,5.957 -30.622,8.394c-24.165,5.284 -51.555,11.273 -71.212,33.677c-16.186,18.448 -24.545,45.611 -26.1,76.484c-1.287,25.52 1.681,50.559 10.32,67.579c12.336,25.866 38.729,43.762 69.274,43.762c42.338,0 76.711,-34.373 76.711,-76.71c0,-42.338 -31.692,-76.712 -74.03,-76.712c-28.79,0 -46.126,15.609 -53.227,27.599Z" style="fill:#fff;fill-rule:nonzero;"/><path d="M1569.96,286.964l29.814,-0.054l0,-67.341c10.682,12.099 29.503,19.706 47.206,19.706c42.338,0 76.711,-34.373 76.711,-76.711c0,-42.337 -34.373,-76.71 -76.711,-76.71c-17.703,0 -35.531,6.666 -47.206,18.457l0,-14.71l-29.814,0l0,197.363Zm76.048,-170.45c-26.105,0 -46.642,18.678 -46.642,46.05c0,27.373 20.537,46.212 46.642,46.212c26.105,0 45.945,-20.107 45.945,-46.212c0,-26.105 -19.84,-46.05 -45.945,-46.05Z" style="fill:#fff;"/><path d="M1823.34,85.854c42.338,0 76.711,34.373 76.711,76.71c0,42.338 -34.373,76.711 -76.711,76.711c-42.337,0 -76.71,-34.373 -76.71,-76.711c0,-42.337 34.373,-76.71 76.71,-76.71Zm0,29.801c25.891,0 46.91,21.019 46.91,46.909c0,25.891 -21.019,46.91 -46.91,46.91c-25.89,0 -46.909,-21.019 -46.909,-46.91c0,-25.89 21.019,-46.909 46.909,-46.909Z" style="fill:#fff;"/></g><g><path d="M438.409,235.528l-29.812,0l0,-145.927l29.812,0l0,10.191c6.621,-6.225 19.031,-13.915 36.246,-13.938c21.159,0 36.929,8.9 47.739,23.22c11.814,-14.179 31.299,-23.22 51.152,-23.22c37.257,0 62.646,25.152 62.646,64.352l0,85.322l-29.813,0l0,-85.322c0,-19.044 -15.495,-34.539 -34.539,-34.539c-19.046,0 -34.539,15.495 -34.539,34.539l0,85.322l-29.813,0l0,-85.322c0,-19.044 -15.495,-34.539 -34.539,-34.539c-19.045,0 -34.54,15.495 -34.54,34.539l0,85.322Z" style="fill:#fff;"/><path d="M814.747,235.528l-29.814,0l0,-15.959c-10.682,12.099 -29.503,19.706 -47.206,19.706c-42.338,0 -76.711,-34.373 -76.711,-76.711c0,-42.337 34.373,-76.71 76.711,-76.71c17.703,0 35.531,6.666 47.206,18.457l0,-14.71l29.814,0l0,145.927Zm-76.048,-119.014c26.105,0 46.642,18.678 46.642,46.05c0,27.373 -20.537,46.212 -46.642,46.212c-26.105,0 -45.945,-20.107 -45.945,-46.212c0,-26.105 19.84,-46.05 45.945,-46.05Z" style="fill:#fff;"/><path d="M877.851,235.528l-30.327,0l0,-145.927l30.327,0l0,145.927Zm-15.164,-211.043c11.302,0 20.477,9.176 20.477,20.478c0,11.301 -9.175,20.477 -20.477,20.477c-11.301,0 -20.477,-9.176 -20.477,-20.477c0,-11.302 9.176,-20.478 20.477,-20.478Z" style="fill:#fff;"/><rect x="910.627" y="29.6" width="30.327" height="205.928" style="fill:#fff;"/></g><path d="M208.127,159.999c0,26.538 -21.59,48.128 -48.127,48.128c-26.538,0 -48.127,-21.59 -48.127,-48.128c0,-26.537 21.589,-48.126 48.127,-48.126c26.537,0 48.127,21.589 48.127,48.126m-48.127,-159.999c-88.225,0 -160,71.775 -160,159.999c0,88.225 71.775,160.001 160,160.001c32.323,0 63.488,-9.623 90.125,-27.829l0.462,-0.317l-21.555,-25.06l-0.367,0.237c-20.507,13.192 -44.251,20.165 -68.665,20.165c-70.137,0 -127.196,-57.06 -127.196,-127.197c0,-70.137 57.059,-127.196 127.196,-127.196c70.137,0 127.197,57.059 127.197,127.196c0,9.089 -1.009,18.291 -2.994,27.343c-4.026,16.507 -15.58,21.564 -24.263,20.895c-8.727,-0.704 -18.942,-6.927 -19.009,-22.149l0,-11.594l0,-14.495c0,-44.625 -36.306,-80.93 -80.931,-80.93c-44.625,0 -80.931,36.305 -80.931,80.93c0,44.626 36.306,80.932 80.931,80.932c21.675,0 42.011,-8.479 57.338,-23.891c8.912,13.87 23.445,22.567 39.974,23.894c1.418,0.114 2.866,0.173 4.304,0.173c11.639,0 23.172,-3.89 32.474,-10.952c9.592,-7.281 16.751,-17.815 20.705,-30.462c0.639,-2.042 1.795,-6.724 1.801,-6.754l0.034,-0.168c2.331,-10.156 3.371,-20.274 3.371,-32.772c0,-88.224 -71.776,-159.999 -160.001,-159.999" style="fill:#ff9e00;fill-rule:nonzero;"/></g></g></svg>